<mxfile host="app.diagrams.net" modified="2024-06-06T23:46:05.543Z" agent="Mozilla/5.0 (Windows NT 10.0; Win64; x64) AppleWebKit/537.36 (KHTML, like Gecko) Chrome/125.0.0.0 Safari/537.36" etag="xEh7G3v42fHpbnbuVrZv" version="24.5.1" type="device">
  <diagram name="PÃ¡gina-1" id="G3RgjJ8MxY0WfwMHQoJw">
    <mxGraphModel dx="880" dy="476" grid="1" gridSize="10" guides="1" tooltips="1" connect="1" arrows="1" fold="1" page="1" pageScale="1" pageWidth="827" pageHeight="1169" math="0" shadow="0">
      <root>
        <mxCell id="0" />
        <mxCell id="1" parent="0" />
        <mxCell id="KPlFuskyVPOC9UpxTIkj-1" value="example-delphi-vpc" style="sketch=0;outlineConnect=0;gradientColor=none;html=1;whiteSpace=wrap;fontSize=12;fontStyle=0;shape=mxgraph.aws4.group;grIcon=mxgraph.aws4.group_vpc;strokeColor=#879196;fillColor=none;verticalAlign=top;align=left;spacingLeft=30;fontColor=#879196;dashed=0;" vertex="1" parent="1">
          <mxGeometry x="100" y="90" width="480" height="280" as="geometry" />
        </mxCell>
        <mxCell id="KPlFuskyVPOC9UpxTIkj-2" value="example-delphi-private-subnet1-us-east-1a" style="points=[[0,0],[0.25,0],[0.5,0],[0.75,0],[1,0],[1,0.25],[1,0.5],[1,0.75],[1,1],[0.75,1],[0.5,1],[0.25,1],[0,1],[0,0.75],[0,0.5],[0,0.25]];outlineConnect=0;gradientColor=none;html=1;whiteSpace=wrap;fontSize=12;fontStyle=0;container=1;pointerEvents=0;collapsible=0;recursiveResize=0;shape=mxgraph.aws4.group;grIcon=mxgraph.aws4.group_security_group;grStroke=0;strokeColor=#00A4A6;fillColor=#E6F6F7;verticalAlign=top;align=left;spacingLeft=30;fontColor=#147EBA;dashed=0;connectable=0;" vertex="1" parent="1">
          <mxGeometry x="110" y="190" width="330" height="160" as="geometry" />
        </mxCell>
        <mxCell id="KPlFuskyVPOC9UpxTIkj-3" value="Amazon S3" style="sketch=0;outlineConnect=0;fontColor=#232F3E;gradientColor=none;strokeColor=#ffffff;fillColor=#232F3E;dashed=0;verticalLabelPosition=middle;verticalAlign=bottom;align=center;html=1;whiteSpace=wrap;fontSize=10;fontStyle=1;spacing=3;shape=mxgraph.aws4.productIcon;prIcon=mxgraph.aws4.s3;" vertex="1" parent="1">
          <mxGeometry x="690" y="220" width="80" height="100" as="geometry" />
        </mxCell>
        <mxCell id="KPlFuskyVPOC9UpxTIkj-7" style="edgeStyle=none;curved=1;rounded=0;orthogonalLoop=1;jettySize=auto;html=1;fontSize=12;startSize=8;endSize=8;" edge="1" parent="1" source="KPlFuskyVPOC9UpxTIkj-4" target="KPlFuskyVPOC9UpxTIkj-3">
          <mxGeometry relative="1" as="geometry" />
        </mxCell>
        <mxCell id="KPlFuskyVPOC9UpxTIkj-4" value="VPC Endpoint&lt;br&gt;Gateway S3" style="sketch=0;outlineConnect=0;fontColor=#232F3E;gradientColor=none;fillColor=#8C4FFF;strokeColor=none;dashed=0;verticalLabelPosition=bottom;verticalAlign=top;align=center;html=1;fontSize=12;fontStyle=0;aspect=fixed;pointerEvents=1;shape=mxgraph.aws4.endpoints;" vertex="1" parent="1">
          <mxGeometry x="490" y="230" width="78" height="78" as="geometry" />
        </mxCell>
        <mxCell id="KPlFuskyVPOC9UpxTIkj-6" style="edgeStyle=none;curved=1;rounded=0;orthogonalLoop=1;jettySize=auto;html=1;exitX=1;exitY=0.5;exitDx=0;exitDy=0;exitPerimeter=0;fontSize=12;startSize=8;endSize=8;" edge="1" parent="1" source="KPlFuskyVPOC9UpxTIkj-5" target="KPlFuskyVPOC9UpxTIkj-4">
          <mxGeometry relative="1" as="geometry" />
        </mxCell>
        <mxCell id="KPlFuskyVPOC9UpxTIkj-5" value="windows-server-delphi" style="outlineConnect=0;dashed=0;verticalLabelPosition=bottom;verticalAlign=top;align=center;html=1;shape=mxgraph.aws3.ec2;fillColor=#F58534;gradientColor=none;" vertex="1" parent="1">
          <mxGeometry x="325" y="230" width="60" height="80" as="geometry" />
        </mxCell>
        <mxCell id="KPlFuskyVPOC9UpxTIkj-11" style="edgeStyle=none;curved=1;rounded=0;orthogonalLoop=1;jettySize=auto;html=1;exitX=0.5;exitY=1;exitDx=0;exitDy=0;fontSize=12;startSize=8;endSize=8;" edge="1" parent="1" source="KPlFuskyVPOC9UpxTIkj-8" target="KPlFuskyVPOC9UpxTIkj-9">
          <mxGeometry relative="1" as="geometry" />
        </mxCell>
        <mxCell id="KPlFuskyVPOC9UpxTIkj-8" value="" style="shape=actor;whiteSpace=wrap;html=1;" vertex="1" parent="1">
          <mxGeometry x="335" y="20" width="40" height="50" as="geometry" />
        </mxCell>
        <mxCell id="KPlFuskyVPOC9UpxTIkj-9" value="AWS SSM" style="sketch=0;outlineConnect=0;fontColor=#232F3E;gradientColor=none;fillColor=#E7157B;strokeColor=none;dashed=0;verticalLabelPosition=bottom;verticalAlign=top;align=center;html=1;fontSize=12;fontStyle=0;aspect=fixed;pointerEvents=1;shape=mxgraph.aws4.systems_manager_session_manager;" vertex="1" parent="1">
          <mxGeometry x="325" y="100" width="60" height="60" as="geometry" />
        </mxCell>
        <mxCell id="KPlFuskyVPOC9UpxTIkj-14" value="port 9000" style="edgeStyle=none;curved=1;rounded=0;orthogonalLoop=1;jettySize=auto;html=1;fontSize=12;startSize=8;endSize=8;" edge="1" parent="1" source="KPlFuskyVPOC9UpxTIkj-12" target="KPlFuskyVPOC9UpxTIkj-5">
          <mxGeometry relative="1" as="geometry" />
        </mxCell>
        <mxCell id="KPlFuskyVPOC9UpxTIkj-12" value="windows-server-curl" style="outlineConnect=0;dashed=0;verticalLabelPosition=bottom;verticalAlign=top;align=center;html=1;shape=mxgraph.aws3.ec2;fillColor=#F58534;gradientColor=none;" vertex="1" parent="1">
          <mxGeometry x="200" y="228" width="60" height="80" as="geometry" />
        </mxCell>
        <mxCell id="KPlFuskyVPOC9UpxTIkj-13" value="teste de /api" style="edgeStyle=none;curved=1;rounded=0;orthogonalLoop=1;jettySize=auto;html=1;entryX=0.5;entryY=0;entryDx=0;entryDy=0;entryPerimeter=0;fontSize=12;startSize=8;endSize=8;" edge="1" parent="1" source="KPlFuskyVPOC9UpxTIkj-9" target="KPlFuskyVPOC9UpxTIkj-12">
          <mxGeometry relative="1" as="geometry">
            <Array as="points">
              <mxPoint x="230" y="140" />
            </Array>
          </mxGeometry>
        </mxCell>
        <mxCell id="KPlFuskyVPOC9UpxTIkj-18" style="edgeStyle=none;curved=1;rounded=0;orthogonalLoop=1;jettySize=auto;html=1;exitX=0.54;exitY=0;exitDx=0;exitDy=0;exitPerimeter=0;fontSize=12;startSize=8;endSize=8;" edge="1" parent="1" source="KPlFuskyVPOC9UpxTIkj-15" target="KPlFuskyVPOC9UpxTIkj-5">
          <mxGeometry relative="1" as="geometry">
            <Array as="points">
              <mxPoint x="320" y="380" />
              <mxPoint x="355" y="370" />
            </Array>
          </mxGeometry>
        </mxCell>
        <mxCell id="KPlFuskyVPOC9UpxTIkj-15" value="SSM Manager + S3 Full Acess&lt;br&gt;(SSMRoleInstance)" style="outlineConnect=0;dashed=0;verticalLabelPosition=bottom;verticalAlign=top;align=center;html=1;shape=mxgraph.aws3.role;fillColor=#759C3E;gradientColor=none;" vertex="1" parent="1">
          <mxGeometry x="188.67999999999998" y="390" width="71.32" height="60" as="geometry" />
        </mxCell>
        <mxCell id="KPlFuskyVPOC9UpxTIkj-19" value="delphi-server-sg" style="fillColor=none;strokeColor=#DD3522;verticalAlign=top;fontStyle=0;fontColor=#DD3522;whiteSpace=wrap;html=1;" vertex="1" parent="1">
          <mxGeometry x="290" y="209" width="130" height="130" as="geometry" />
        </mxCell>
        <mxCell id="KPlFuskyVPOC9UpxTIkj-20" style="edgeStyle=none;curved=0;rounded=0;orthogonalLoop=1;jettySize=auto;html=1;entryX=0.692;entryY=0.315;entryDx=0;entryDy=0;entryPerimeter=0;fontSize=12;startSize=8;endSize=8;" edge="1" parent="1" source="KPlFuskyVPOC9UpxTIkj-9" target="KPlFuskyVPOC9UpxTIkj-19">
          <mxGeometry relative="1" as="geometry">
            <Array as="points">
              <mxPoint x="480" y="130" />
              <mxPoint x="480" y="250" />
            </Array>
          </mxGeometry>
        </mxCell>
      </root>
    </mxGraphModel>
  </diagram>
</mxfile>
